<?xml version="1.0" encoding="utf-8"?>
<!-- Svg Vector Icons : http://www.onlinewebfonts.com/icon -->
<!DOCTYPE svg PUBLIC "-//W3C//DTD SVG 1.1//EN" "http://www.w3.org/Graphics/SVG/1.1/DTD/svg11.dtd">
<svg version="1.1" xmlns="http://www.w3.org/2000/svg" xmlns:xlink="http://www.w3.org/1999/xlink" x="0px" y="0px" viewBox="0 0 1000 1000" enable-background="new 0 0 1000 1000" xml:space="preserve">
<metadata> Svg Vector Icons : http://www.onlinewebfonts.com/icon </metadata>
<g><path d="M499.6,990h-0.2c-134.6-0.9-250.8-49.3-345.5-144C58.5,750.5,10,634,10,499.6c0-134.7,48.5-251,144.1-345.7C248.6,58.5,364.9,10,499.6,10C634,10,750.5,58.5,846,153.9c95.5,94.6,144,210.9,144,345.6C990,634,941.5,750.5,846,846c-95.5,94.7-212,143.1-346.3,144L499.6,990L499.6,990z M499.6,67.5c-120.5,0-220.1,41.5-304.9,127C109,279.4,67.5,379.1,67.5,499.6c0,120.2,41.5,220.2,127.1,305.8c84.7,84.7,184.4,126.3,304.9,127.1c120.3-0.8,220.3-42.5,305.9-127.2c85.4-85.5,127-185.5,127-305.7c0-120.5-41.6-220.2-127-304.9C719.9,109.1,619.8,67.5,499.6,67.5z"/><path d="M630.2,610.3h-171l42.9-45.2c7.1-7.4,7.1-19.5,0-26.9c-7.1-7.5-18.6-7.5-25.6,0l-77.1,81.1c-7,7.4-7,19.5,0,26.9l81.3,85.5c3.6,3.7,8.2,5.6,12.8,5.6c4.7,0,9.3-1.8,12.8-5.6c7-7.4,7-19.5,0-27l-54-56.8c0.7,0,1.2,0.4,1.8,0.4h176c24.3,0,31.7,8.4,32.2,12.6v68.7c0,8-1.7,13.7-5.1,17c-4.9,4.7-13.7,5-18.7,4.5H348.7c-21.4,0-25-20.4-25.5-25.1v-238c0-10.5-8.1-19.1-18.1-19.1s-18.1,8.5-18.1,19.1v239.6c1.7,21.3,16.6,61.6,61.7,61.6l287.7-0.1c0.7,0.1,2.9,0.3,6.1,0.3c8.9,0,25.5-1.9,38.7-14.3c8-7.4,17.4-21.3,17.4-45.5V661C698.6,643.4,684.3,610.3,630.2,610.3z"/><path d="M777.8,483.9l-243.4-256c-22-23.1-60.6-23.1-82.5,0L209.4,483c-7.1,7.4-7.1,19.5,0,27c7.1,7.4,18.5,7.4,25.6,0l242.6-255.3c8.3-8.7,23-8.7,31.3,0l243.4,256.1c3.5,3.7,8.2,5.6,12.8,5.6c4.7,0,9.3-1.8,12.8-5.6C784.9,503.4,784.9,491.3,777.8,483.9z"/></g>
</svg>